Coordinates
version=1
nRows=9
nColumns=24
inDegrees=yes

Units are S.I. units (second, meters, Newtons, ...)
Angles are in degrees.

endheader
time	pelvis_tilt	pelvis_list	pelvis_rotation	pelvis_tx	pelvis_ty	pelvis_tz	hip_flexion_r	hip_adduction_r	hip_rotation_r	knee_angle_r	ankle_angle_r	subtalar_angle_r	mtp_angle_r	hip_flexion_l	hip_adduction_l	hip_rotation_l	knee_angle_l	ankle_angle_l	subtalar_angle_l	mtp_angle_l	lumbar_extension	lumbar_bending	lumbar_rotation
      3.34500000	     -9.32266485	    -10.52515957	      0.50768360	     -1.42629681	     -0.02780496	     -0.26784690	     17.18264020	     15.75889346	      0.01606142	    -20.05153129	      5.23494754	     -1.62812029	     10.94852068	     26.93879792	    -16.05190866	     -4.94923593	    -66.39668233	     -5.74194915	      3.50084719	      5.10544000	      9.79118147	      9.85772267	     -7.59961913
      3.35000000	     -9.23096593	    -10.16655892	      0.37073179	     -1.42001772	     -0.02678669	     -0.26734274	     16.33351204	     15.52955403	      0.54121997	    -19.63146508	      5.32157597	     -1.89176551	     10.60007576	     27.52214055	    -15.66499123	     -5.09384199	    -65.86869636	     -5.11106292	      3.48916837	      5.05017323	      9.66923681	      9.49686609	     -7.25808200
      3.35500000	     -9.11937983	     -9.84008771	      0.22351862	     -1.41376472	     -0.02584428	     -0.26685224	     15.44769835	     15.33336917	      1.14749982	    -19.18321932	      5.44977228	     -2.17561571	     10.19619522	     28.08005043	    -15.32909266	     -5.27234049	    -65.29593463	     -4.48526598	      3.53126063	      4.94536348	      9.52197049	      9.18280847	     -6.89583560
      3.36000000	     -9.03325487	     -9.51021895	      0.07369124	     -1.40754637	     -0.02495400	     -0.26637608	     14.60779910	     15.11455398	      1.67986251	    -18.75293978	      5.55593719	     -2.41405721	      9.80157835	     28.64288427	    -14.97870636	     -5.44828741	    -64.64032053	     -3.85307454	      3.62400669	      4.82528201	      9.40106671	      8.86367169	     -6.54862984
      3.36500000	     -8.95972058	     -9.18897283	     -0.07809274	     -1.40136694	     -0.02412807	     -0.26590764	     13.79294305	     14.88883905	      2.15929904	    -18.32623925	      5.65884909	     -2.61152364	      9.45424452	     29.20532958	    -14.63411790	     -5.62514531	    -63.91553997	     -3.24385861	      3.74983747	      4.68553326	      9.29251072	      8.55440445	     -6.20028656
      3.37000000	     -8.90823823	     -8.87028168	     -0.23490927	     -1.39521206	     -0.02335712	     -0.26546764	     13.02049331	     14.64575053	      2.54466382	    -17.91428069	      5.72214070	     -2.76243394	      9.18114173	     29.76632086	    -14.28713197	     -5.80906346	    -63.10656252	     -2.65765789	      3.89435285	      4.55471453	      9.20612785	      8.24905490	     -5.86059827
      3.37500000	     -8.82810892	     -8.58841838	     -0.39674291	     -1.38906814	     -0.02265515	     -0.26504629	     12.19754804	     14.43705458	      2.99935436	    -17.46509254	      5.81864478	     -2.91949236	      8.90175150	     30.28748636	    -13.98178588	     -5.99503595	    -62.25496140	     -2.07764904	      4.04571278	      4.31391097	      9.08757389	      7.99433193	     -5.48658312
      3.38000000	     -8.76084452	     -8.32406652	     -0.56320981	     -1.38295524	     -0.02201431	     -0.26466249	     11.40627375	     14.23003061	      3.38830233	    -17.03409693	      5.87957091	     -3.03826619	      8.64824846	     30.79913447	    -13.68757069	     -6.17917285	    -61.33017108	     -1.48550333	      4.20013883	      4.01187017	      8.97720317	      7.75810297	     -5.13564312
      3.38500000	     -8.78417593	     -8.08156193	     -0.67106731	     -1.37686272	     -0.02157561	     -0.26438328	     10.74527315	     14.01248303	      3.60736609	    -16.62759191	      5.98194932	     -3.07230946	      8.55887942	     31.41753316	    -13.36234586	     -6.25850061	    -60.33686580	     -0.97644655	      4.33333925	      3.90370445	      8.98159785	      7.53753279	     -4.90530095
